PathFileType	4	(X/Y/Z)	34_2_49_p0_0-787_filt_butterworth.trc
DataRate	CameraRate	NumFrames	NumMarkers	Units	OrigDataRate	OrigDataStartFrame	OrigNumFrames
60.0	60.0	6	27	m	60.0	295	787
Frame#	Time	RHip			RKnee			RAnkle			RBigToe			RSmallToe			RHeel			LHip			LKnee			LAnkle			LBigToe			LSmallToe			LHeel			Neck			Head			Nose			RShoulder			RElbow			RWrist			RThumb			RIndex			RPinky			LShoulder			LElbow			LWrist			LThumb			LIndex			LPinky			
		X1	Y1	Z1	X2	Y2	Z2	X3	Y3	Z3	X4	Y4	Z4	X5	Y5	Z5	X6	Y6	Z6	X7	Y7	Z7	X8	Y8	Z8	X9	Y9	Z9	X10	Y10	Z10	X11	Y11	Z11	X12	Y12	Z12	X13	Y13	Z13	X14	Y14	Z14	X15	Y15	Z15	X16	Y16	Z16	X17	Y17	Z17	X18	Y18	Z18	X19	Y19	Z19	X20	Y20	Z20	X21	Y21	Z21	X22	Y22	Z22	X23	Y23	Z23	X24	Y24	Z24	X25	Y25	Z25	X26	Y26	Z26	X27	Y27	Z27	
295	4.916666666666667	0.3548996543735948	0.7487969729894315	0.5376473478767393	0.34721809322614505	0.34776251659417035	0.6053448939531431	0.35678168042536734	0.003903686676142132	0.6544932932362781	0.3428514233337842	-0.023024830711977404	0.5400562946115808	0.4138567254914985	-0.034237478249921315	0.5643361174986742	0.34949145282184235	-0.0745610867959938	0.7326088919887356	0.1582143009292715	0.7645079689117712	0.506929416444143	0.17005911858432682	0.34545467478329256	0.5919878069175287	0.17591494798889545	-0.036206958618798905	0.7337084373777578	0.17798231283701543	-0.007365182014322166	0.5333566257359956	0.12716579124548497	-0.03435524789203313	0.602505169147094	0.1892983343512334	-0.07070107066956244	0.7622764913661454	0.25869092575244124	1.2250971603545222	0.48176403481497887	0.26762576843243946	1.44587635045469	0.43435337949002034	0.2524896882483382	1.326573127631966	0.3998100132185051	0.4078350941897838	1.1680200181713492	0.5348406912073194	0.5877515543464904	1.0844356865627924	0.4602761864307307	0.5562253365921604	1.2494761623672326	0.4696771923191191	0.48736503560626404	1.3250385189636522	0.5120285822876658	0.508746105852723	1.330233713535416	0.5184110001989352	0.5448405804228225	1.3197827705935714	0.4794868952210608	0.11040218217421592	1.1711840538173268	0.5205802706256224	-0.08989464301346872	1.1006260378526593	0.47308807790930474	-0.06898838075558925	1.2782661012415828	0.46948206877969245	-0.04203909748515507	1.3541072300091788	0.48766014139916347	-0.059599303903574916	1.3623475883956757	0.4925403827954095	-0.07220407869789054	1.3355959863307305	0.4702409035238893	
296	4.933333333333334	0.35455934972142433	0.7493278293165979	0.537021888636657	0.3471863457031942	0.3477933748025991	0.6059409815819607	0.3568379506816604	0.00434821949948716	0.6546610786451922	0.34236910898546946	-0.022136619440348344	0.5381267913556316	0.4129171432327937	-0.03161625851066548	0.5608480391492972	0.34907241905636754	-0.07504335775711254	0.73415117515899	0.15768456922434823	0.7652972847743649	0.5068510840144719	0.16972473424326517	0.3453968748512191	0.5941331514196215	0.17595471153103173	-0.035969927419550386	0.7336643969394521	0.17821255185859614	-0.006901578388732246	0.533093918419203	0.12716580267654232	-0.034314269261925046	0.6025077880969143	0.18926233789991767	-0.07020166019009996	0.7621779021236268	0.25733629357045795	1.2249807885833008	0.4818222239723374	0.267241158524754	1.445874405875683	0.4346063259356949	0.2528496788858707	1.326433621565633	0.400533925436582	0.4074448334412518	1.1684250783391417	0.533811456757375	0.5859931807121534	1.0840915073791662	0.4570956622884803	0.5481212447905552	1.2469894505752215	0.477357487870554	0.4737787146666241	1.322180856274898	0.500157210998629	0.4919690826442531	1.3285010739522702	0.5043597141560162	0.529577209114764	1.3155323058949147	0.48109236421023316	0.11017795500412932	1.1717120074289442	0.5184489650770315	-0.09215219987905968	1.102865647010328	0.4731385062849235	-0.05275388581234315	1.279516113671607	0.46845980650855	-0.014981030682001307	1.3532984317390255	0.47982806404692396	-0.03223127952268657	1.3650809009121625	0.4834445647525243	-0.048218569105179625	1.3385892636842205	0.46385215523182344	
297	4.95	0.35404816296683456	0.7498384611565303	0.5368937951187734	0.3471089968875507	0.347930139599765	0.6062656752559618	0.3568544325059043	0.004575894819697501	0.6547019823470663	0.3417439430676925	-0.021088664860568165	0.5356139659932361	0.4117509739570143	-0.029424868794684117	0.5578129649723611	0.348768448377315	-0.07577630940317079	0.735634301287678	0.1572572570218707	0.76598014067442	0.506784907498691	0.16942723865839143	0.3454641967951919	0.5957756170971162	0.17597909334869125	-0.0358105484642126	0.733637785143572	0.17836029759347685	-0.0071620502792844876	0.5329184553835041	0.12716020285858637	-0.03428233373143606	0.6025141865675562	0.1891123598793286	-0.06972502351871929	0.7620038537737452	0.2558599675769998	1.2246563901169762	0.48334262399804284	0.26655116190915834	1.446138996254945	0.43513153429942103	0.2537756081271685	1.3263936842578126	0.401601378130482	0.4068312405092278	1.1688459597518521	0.5319928801479061	0.584637493912233	1.0837722916575958	0.4545722721464269	0.5365223926839409	1.2446895916661724	0.4830208132223963	0.4572283325653603	1.3175518950615235	0.4889828928943929	0.471898218808537	1.3255186460322768	0.49176204143754876	0.512179190284216	1.309899833400333	0.47986265495498165	0.11020625592290001	1.1732836187804483	0.516924280184495	-0.09458237445551435	1.1040688148206694	0.4730442027955197	-0.03454193948497086	1.2776114692633849	0.4685738272300035	0.013879061756030367	1.3458206804836317	0.47282123837724294	-0.0014172837687906174	1.3612051875398454	0.4737097809119477	-0.021065976299103867	1.3361027149683833	0.4565552867177063	
298	4.966666666666667	0.35339764136365126	0.7502608942269889	0.5373197942049468	0.34697784052167563	0.3482009451496528	0.6063737601446088	0.35683088084337355	0.004549826629757878	0.6546096931822128	0.3410465695024787	-0.019855794135239982	0.5329477901550984	0.41054614874089657	-0.027920064650158047	0.5555728842105979	0.34858784193284587	-0.07682914185574816	0.7370606342035464	0.15694152477722584	0.7665795836140525	0.5067389176591334	0.16913762715679084	0.3455966275040195	0.596965000906133	0.17600670370095314	-0.03574719056801786	0.733641525427213	0.17836961441864835	-0.008027804233634306	0.5328762586060599	0.12714851032294147	-0.03426966248937151	0.6025277857036113	0.18886125990765118	-0.06924488148375711	0.7617258526331382	0.25440261194022296	1.2242572342860003	0.48578118569758644	0.2656343388602385	1.44671307356998	0.43586734555566536	0.25493191680544247	1.3264291356525684	0.4033318425637099	0.40608155786445277	1.1692190162224014	0.5295844401805644	0.5836760464844494	1.0835411262654953	0.45283542592671355	0.5227586739688417	1.2428873535576983	0.48521996350526536	0.43985698706343135	1.311742162752012	0.48039630511831366	0.4508610948141165	1.3217584409439151	0.48211641703409186	0.49500721853075186	1.3037651229498013	0.475762463546097	0.11050301009659674	1.1757722204844536	0.5161917476925615	-0.09719171765035378	1.1044460059861523	0.4728469915328918	-0.016475327724614852	1.2729070786888308	0.46997661653174483	0.04181270728857109	1.3326167255744243	0.46911187963377765	0.02943790744101231	1.3510282109222636	0.4667057198497958	0.006165158232682547	1.328519537388607	0.4485213930366616	
299	4.983333333333333	0.3526949014244238	0.7506106112508043	0.538011056849729	0.3468009418401726	0.3486151031310578	0.6062685231299831	0.35678102967350606	0.0043085575516254165	0.654375458853251	0.34037129122712917	-0.018588491255733808	0.5305253275141767	0.40960145810115867	-0.02719527609536313	0.5543148549297018	0.34854563198235805	-0.07814999262177587	0.738409293710155	0.15675605768380582	0.7671144819102534	0.5066906342732412	0.16889554641519494	0.3458452366226501	0.5976294936528679	0.17606243871317104	-0.03578403678412484	0.7336747323498164	0.17824159521174354	-0.009206196512887607	0.5329817278107759	0.12713226624919177	-0.034284442637983	0.6025554085108964	0.18853353821124078	-0.06877118382988553	0.7613730629651035	0.2531289120626118	1.2239937819703075	0.4884370826326322	0.26461615723628773	1.4475318497814513	0.436524838660713	0.2560080539750494	1.326524790665949	0.40566308776439836	0.4053240122572084	1.1695696137533604	0.5268170762679782	0.5831430426379761	1.0834409999103816	0.45182293219331365	0.5085947935050299	1.241739194186399	0.48335311506852374	0.4237971692378393	1.305987560789688	0.4749705664305516	0.4315273810422667	1.3181190465159145	0.475530456128067	0.48026133184667097	1.2981845294915753	0.4691256894947997	0.11093047392345556	1.1786687488051328	0.5161210563007685	-0.09967466089222284	1.1042377212409589	0.47257955504852933	-0.000564803018417804	1.26640863479178	0.4726478022045099	0.06625479490458613	1.3166647063644357	0.47005665433946786	0.05697053173582462	1.3370816747636844	0.4643078792937324	0.030463418820738136	1.3179834274423323	0.4396988683983325	
300	5.0	0.3520400691484472	0.7509483652852971	0.5385950842784052	0.3465896186451281	0.3491510323028961	0.6059470318964223	0.35672246753085013	0.003953954573416962	0.6540084940008621	0.3398237149566565	-0.017516051395171824	0.5286560246431087	0.40914240635149834	-0.02712766290205118	0.5540130866137243	0.34863997455791973	-0.07959035449595887	0.739636278386123	0.15673320295282628	0.7676096220975781	0.5066006261136532	0.16878696897622433	0.34628373240957205	0.5976483303423835	0.17614803795294123	-0.03588950988357354	0.7337135786549629	0.1780274864216817	-0.010389685339504039	0.5332101046912889	0.12711706336027065	-0.034332561173104334	0.6026086604906834	0.18816823706826874	-0.06832958322499125	0.7610153814719215	0.25216901071971726	1.2240183726205358	0.49076131909092147	0.26364440702449976	1.4484075719122034	0.43685433000152757	0.25684576074244897	1.3266340502051408	0.4082809094074812	0.40467124264482013	1.169968120878896	0.5239900642924167	0.5830416606495302	1.0834525914179094	0.4513132093480908	0.49570886103689205	1.2412458527426173	0.47785395369119965	0.41079656819505705	1.301577844973706	0.47219912008321174	0.4163790563720115	1.315422470992869	0.47157447340182085	0.4694860758032455	1.2941862713260703	0.4611225094655985	0.11129857225437301	1.1813834600241353	0.5163562111771466	-0.10153645769213673	1.103823694096052	0.472039752606409	0.01175924683709675	1.2596505750846414	0.4762230026964934	0.08484578040841168	1.3017704982805647	0.47548730262285455	0.07832442967928493	1.322860970492112	0.466540334726536	0.04936999515171805	1.3075001415183987	0.43084571583937414	
